<?xml version="1.0" encoding="utf-8"?>
<!-- Generator: Adobe Illustrator 19.0.0, SVG Export Plug-In . SVG Version: 6.00 Build 0)  -->
<svg version="1.0" id="Layer_1" xmlns="http://www.w3.org/2000/svg" xmlns:xlink="http://www.w3.org/1999/xlink" x="0px" y="0px"
	 viewBox="0 0 30 30" style="enable-background:new 0 0 30 30;" xml:space="preserve">
<style type="text/css">
	.st0{fill:#FFFFFF;}
</style>
<path id="XMLID_790_" class="st0" d="M44.7,13.9c0.6-0.4,1-0.8,1.2-1.1c0.2-0.3,0.3-0.7,0.3-1.1c0-0.4-0.1-0.7-0.3-1
	c-0.2-0.3-0.5-0.5-0.8-0.6c-0.3-0.1-0.8-0.2-1.4-0.2c-0.6,0-1,0.1-1.4,0.2c-0.3,0.1-0.6,0.4-0.8,0.6c-0.2,0.3-0.3,0.6-0.4,1.1L43,12
	c0-0.3,0.1-0.6,0.3-0.7c0.1-0.1,0.3-0.2,0.5-0.2c0.2,0,0.4,0.1,0.5,0.2c0.1,0.1,0.2,0.3,0.2,0.5c0,0.2-0.1,0.4-0.2,0.6
	c-0.1,0.2-0.5,0.5-1,0.9c-0.8,0.6-1.4,1.1-1.7,1.6c-0.3,0.5-0.5,0.9-0.5,1.4h5.1v-1.4h-2.7c0.2-0.2,0.3-0.3,0.4-0.4
	C44.2,14.3,44.4,14.1,44.7,13.9L44.7,13.9z M53,10v6.2h1.7V14c0-0.4,0.1-0.7,0.2-0.8c0.1-0.2,0.3-0.2,0.5-0.2c0.2,0,0.3,0.1,0.4,0.2
	c0.1,0.1,0.2,0.3,0.2,0.6v2.5h1.7v-2.8c0-0.6-0.1-1-0.4-1.3c-0.3-0.3-0.6-0.4-1.1-0.4c-0.3,0-0.6,0.1-0.8,0.2
	c-0.2,0.1-0.5,0.3-0.7,0.5V10H53L53,10z M50,13.7h-1.7l1.7-1.9V13.7L50,13.7z M51.5,9.9H50l-3.1,3.7V15H50v1.2h1.5V15h0.8v-1.3h-0.8
	V9.9L51.5,9.9z M46.3,22.7C46,22,45,21.7,44.3,22l-0.1,0.1c-0.7,0.3-1.7,0-2.1-0.7l-4.5-8c-0.4-0.7-0.2-1.7,0.5-2.1l0.1-0.1
	c0.6-0.5,0.9-1.4,0.5-2.1l-2.5-4.3C35.7,4,35,3.9,34.6,4.6l-2.2,3.1c-0.5,0.7-0.7,1.8-0.6,2.6c0,0,0.6,3,4.2,9.3
	c3.6,6.4,5.7,8.2,5.7,8.2c0.6,0.5,1.8,0.9,2.6,0.8l3.8-0.3c0.8-0.1,1.1-0.7,0.7-1.4L46.3,22.7L46.3,22.7z M48.9,21
	c-0.2-0.3-0.6-0.5-1-0.3L47.3,21c-0.4,0.2-0.5,0.6-0.3,0.9l2.9,5.2c0.2,0.3,0.6,0.5,1,0.3l0.5-0.3c0.3-0.2,0.5-0.6,0.3-1L48.9,21
	L48.9,21z M39.6,8.8c0.2,0.3,0.6,0.4,0.9,0.2l0.5-0.3c0.3-0.2,0.4-0.7,0.2-1l-2.8-5c-0.2-0.3-0.6-0.5-1-0.3L37,2.7
	c-0.3,0.2-0.5,0.6-0.3,1L39.6,8.8L39.6,8.8z M47.6-1.2c-3,0-5.8,1-8.2,2.6l1,1.8c2-1.4,4.5-2.3,7.1-2.3c6.8,0,12.2,5.5,12.3,12.2
	c0,5-3,9.3-7.2,11.2l1,1.8c4.9-2.3,8.3-7.2,8.3-12.9C61.8,5.1,55.4-1.2,47.6-1.2L47.6-1.2z"/>
<path id="XMLID_516_" class="st0" d="M19.3,28h-1.1v-8.6v-7.9h1.1c0.3,0,0.6,0.3,0.6,0.6v15.3c0,0.1,0,0.2-0.1,0.3
	c0,0,0,0.1-0.1,0.1c0,0,0,0.1-0.1,0.1c0,0,0,0,0,0C19.6,27.9,19.4,28,19.3,28"/>
<path id="XMLID_515_" class="st0" d="M21.3,30h-3.2v-0.6h0h0.1h0.1h0.1h0.1h0.1h0.1h0.1h0.1h0.1h0.1H19h0.1h0.1h0.1h0.1h0.1h0.1h0.1
	h0.1h0.1h0.1h0.1h0.1H20H20h0.1h0.1h0.1h0.1h0.1h0.1h0.1h0.1h0.1h0c0,0,0,0,0.1,0c0,0,0,0,0.1,0c0,0,0,0,0.1,0c0,0,0,0,0.1,0
	c0,0,0,0,0,0c0,0,0,0,0,0c0,0,0,0,0,0c0.1-0.1,0.2-0.3,0.2-0.5V10.7c0-0.3-0.3-0.6-0.6-0.6h-2.6V9.5h3.2c0.3,0,0.6,0.3,0.6,0.6v19.3
	c0,0.2-0.1,0.3-0.2,0.5C21.6,29.9,21.5,30,21.3,30"/>
<path id="XMLID_12_" class="st0" d="M16.4,15.2c0.3,0,0.5,0.3,0.5,0.6c0,0.3,0,0.6-0.1,0.9l0,0.1c0,0.3-0.3,0.5-0.5,0.5l0,0
	c-0.3,0-0.5-0.3-0.5-0.6l0-0.1c0-0.3,0-0.6,0.1-0.9C15.9,15.3,16.1,15.1,16.4,15.2L16.4,15.2z M16.6,18.9c-0.2,1-0.6,1.6-1.2,2.1
	c-0.1,0.1-0.2,0.1-0.3,0.1c-0.2,0-0.3-0.1-0.4-0.2c-0.2-0.2-0.2-0.6,0.1-0.7c0.4-0.3,0.7-0.8,0.8-1.6c0.1-0.3,0.4-0.5,0.6-0.4
	C16.5,18.3,16.6,18.6,16.6,18.9L16.6,18.9z M13,21.7L13,21.7c-0.4,0-0.8-0.1-1.2-0.1c-0.3-0.1-0.7-0.1-1-0.1c-0.3,0-0.5-0.3-0.5-0.5
	c0-0.3,0.3-0.5,0.5-0.5c0.4,0,0.8,0.1,1.1,0.1c0.3,0.1,0.7,0.1,1,0.1c0.3,0,0.5,0.3,0.5,0.5C13.6,21.5,13.3,21.7,13,21.7L13,21.7z
	 M9.1,22c-0.6,0.3-1.1,0.7-1.6,1.2c-0.1,0.1-0.2,0.2-0.4,0.2c-0.1,0-0.3-0.1-0.4-0.2c-0.2-0.2-0.2-0.5,0-0.8c0.5-0.5,1.2-1,1.8-1.4
	c0.3-0.1,0.6,0,0.7,0.2C9.5,21.5,9.4,21.8,9.1,22L9.1,22z M6.4,24.7c-0.1,0.3-0.2,0.5-0.3,0.8c-0.1,0.2-0.3,0.4-0.5,0.4
	c-0.1,0-0.1,0-0.2,0c-0.3-0.1-0.4-0.4-0.4-0.7c0.1-0.3,0.2-0.6,0.4-1C5.6,24,5.9,23.9,6.2,24C6.4,24.1,6.5,24.5,6.4,24.7L6.4,24.7z
	 M15.5,14.4c-0.8-0.7-2-1.8-3.2-2.9H4c-0.3,0-0.6,0.3-0.6,0.6v15.3C3.4,27.7,3.7,28,4,28h15.3c0.3,0,0.6-0.3,0.6-0.6V12.1
	c0-0.3-0.3-0.6-0.6-0.6h-2.4c0,0.9-0.1,1.8-0.1,2.4c0,0.5-0.4,0.7-0.7,0.7C15.9,14.7,15.7,14.6,15.5,14.4L15.5,14.4z"/>
<path id="XMLID_508_" class="st0" d="M21.3,9.5H17c0,0.2,0,0.4,0,0.6h3.8c0.3,0,0.6,0.3,0.6,0.6v18.2c0,0.3-0.3,0.6-0.6,0.6H2.6
	c-0.3,0-0.6-0.3-0.6-0.6V10.7c0-0.3,0.3-0.6,0.6-0.6h8.2c-0.2-0.2-0.4-0.4-0.6-0.6H2c-0.3,0-0.6,0.3-0.6,0.6v19.3
	C1.4,29.7,1.7,30,2,30h19.3c0.3,0,0.6-0.3,0.6-0.6V10.1C21.9,9.7,21.6,9.5,21.3,9.5L21.3,9.5z"/>
<path id="XMLID_7_" class="st0" d="M10.8,1.3c1.7-0.7,3.6,0.1,4.3,1.8c0.7,1.7-0.1,3.6-1.8,4.3C11.6,8,9.7,7.2,9,5.6
	C8.3,3.9,9.1,2,10.8,1.3L10.8,1.3z M15.9,14c0.1,0.1,0.3,0.1,0.3-0.1c0.1-1.7,0.5-9.2-0.2-11.1c-0.9-2.1-3.3-3.1-5.5-2.3
	C8.3,1.4,7.3,3.9,8.2,6C9,7.9,14.6,12.9,15.9,14L15.9,14z"/>
<path id="XMLID_505_" class="st0" d="M13,6.5c1.2-0.5,1.8-1.9,1.3-3.2c-0.5-1.2-1.9-1.8-3.2-1.3C9.9,2.6,9.3,4,9.8,5.2
	C10.3,6.5,11.7,7.1,13,6.5L13,6.5z"/>
</svg>
