<?xml version="1.0" encoding="utf-8"?>
<!-- Generator: Adobe Illustrator 19.0.0, SVG Export Plug-In . SVG Version: 6.00 Build 0)  -->
<svg version="1.0" id="Layer_1" xmlns="http://www.w3.org/2000/svg" xmlns:xlink="http://www.w3.org/1999/xlink" x="0px" y="0px"
	 viewBox="0 0 44 36" style="enable-background:new 0 0 44 36;" xml:space="preserve">
<style type="text/css">
	.st0{fill-rule:evenodd;clip-rule:evenodd;fill:#FCFCFC;}
</style>
<path id="XMLID_2_" class="st0" d="M17.7,30.5v1.8c0,1.4,0.7,1.3,1.9,1.3h10.7c0.7,0,1.9,0.1,2.5-0.4c0.3-0.2,0.5-0.8,0.5-1.8V19.6
	h1.8v11.8c0,1.6-0.4,2.6-1.2,3.3c-1,0.7-2.5,0.7-3.6,0.7H19.6c-2.2,0.1-3.7-0.5-3.7-3.1v-1.8H17.7L17.7,30.5L17.7,30.5z M35.4,33.6
	c0.5,0,1-0.1,1.4-0.4c0.5-0.4,0.5-1.2,0.5-1.8V19.6h1.8v11.8c0,1.2-0.2,2.4-1.2,3.2c-1,0.8-2.2,0.8-3.4,0.8h-0.7
	c0.1-0.1,0.2-0.1,0.4-0.2C34.8,34.8,35.2,34.2,35.4,33.6L35.4,33.6L35.4,33.6z M22.7,30.5v1.8c0,0.3,0,0.5,0.1,0.7h-1.9
	c0-0.2,0-0.5,0-0.7v-1.8H22.7L22.7,30.5L22.7,30.5z M37.2,12.1h2l-0.7-5.9h-0.6L37.2,12.1L37.2,12.1L37.2,12.1z M36.8,12.8h2.9v6
	h-2.9V12.8L36.8,12.8L36.8,12.8z M33.2,12.1h2l-0.7-5.9h-0.6L33.2,12.1L33.2,12.1L33.2,12.1z M32.8,12.8h2.9v6h-2.9V12.8L32.8,12.8
	L32.8,12.8z M19.3,10.8c3.8,0,6.9,3.1,6.9,6.9c0,3.8-3.1,6.9-6.9,6.9c-3.8,0-6.9-3.1-6.9-6.9C12.3,13.9,15.4,10.8,19.3,10.8
	L19.3,10.8L19.3,10.8z M19.3,12c3.2,0,5.8,2.6,5.8,5.8c0,0.8-0.2,1.6-0.5,2.3L17,12.5C17.7,12.2,18.5,12,19.3,12L19.3,12L19.3,12z
	 M21.6,23c-0.7,0.3-1.5,0.5-2.3,0.5c-3.2,0-5.8-2.6-5.8-5.8c0-0.8,0.2-1.6,0.5-2.3L21.6,23L21.6,23L21.6,23z M16.2,12.9l7.9,7.9
	c-0.5,0.7-1.1,1.4-1.8,1.8l-7.9-7.9C14.9,14,15.5,13.3,16.2,12.9L16.2,12.9L16.2,12.9z M12.6,26.1H16c0,0,0.1,0,0.1,0.1v1.4
	c0,0,0,0.1-0.1,0.1h-3.4c0,0-0.1,0-0.1-0.1L12.6,26.1C12.5,26.2,12.6,26.1,12.6,26.1L12.6,26.1L12.6,26.1z M17.6,26.1H21
	c0,0,0.1,0,0.1,0.1v1.4c0,0,0,0.1-0.1,0.1h-3.4c0,0-0.1,0-0.1-0.1L17.6,26.1C17.5,26.2,17.5,26.1,17.6,26.1L17.6,26.1L17.6,26.1z
	 M22.5,26.1h3.4c0,0,0.1,0,0.1,0.1v1.4c0,0,0,0.1-0.1,0.1h-3.4c0,0-0.1,0-0.1-0.1L22.5,26.1C22.4,26.2,22.5,26.1,22.5,26.1
	L22.5,26.1L22.5,26.1z M19.7,7.2h0.8V8h-0.8V7.2L19.7,7.2L19.7,7.2z M17.4,4.1h1.3c0.4,0,0.8,0.4,0.8,0.8v2.2c0,0.4-0.4,0.8-0.8,0.8
	h-1.3c-0.4,0-0.8-0.4-0.8-0.8V4.9C16.6,4.5,17,4.1,17.4,4.1L17.4,4.1L17.4,4.1z M18.6,5h-1.1v2.1h1.1V5L18.6,5L18.6,5z M21.5,4.1
	h1.3c0.4,0,0.8,0.4,0.8,0.8v2.2c0,0.4-0.4,0.8-0.8,0.8h-1.3c-0.4,0-0.8-0.4-0.8-0.8V4.9C20.7,4.5,21.1,4.1,21.5,4.1L21.5,4.1
	L21.5,4.1z M22.7,5h-1.1v2.1h1.1V5L22.7,5L22.7,5z M25,4.1h1.3c0.4,0,0.8,0.4,0.8,0.8v2.2C27,7.6,26.7,8,26.2,8H25
	c-0.4,0-0.8-0.4-0.8-0.8V4.9C24.2,4.5,24.5,4.1,25,4.1L25,4.1L25,4.1z M26.2,5h-1.1v2.1h1.1V5L26.2,5L26.2,5z M11,3.2h16.5
	c0.2,0,0.4,0.2,0.4,0.4v4.8c0,0.2-0.2,0.4-0.4,0.4H11c-0.2,0-0.4-0.2-0.4-0.4V3.6C10.6,3.4,10.8,3.2,11,3.2L11,3.2L11,3.2z M9.1,0.4
	h20.3c0.7,0,1.3,0.6,1.3,1.3v26.5c0,0.7-0.6,1.3-1.3,1.3H9.1c-0.7,0-1.3-0.6-1.3-1.3V1.7C7.8,1,8.4,0.4,9.1,0.4L9.1,0.4L9.1,0.4z"/>
</svg>
