<?xml version="1.0" encoding="utf-8"?>
<!-- Generator: Adobe Illustrator 19.0.0, SVG Export Plug-In . SVG Version: 6.00 Build 0)  -->
<svg version="1.0" id="Layer_1" xmlns="http://www.w3.org/2000/svg" xmlns:xlink="http://www.w3.org/1999/xlink" x="0px" y="0px"
	 viewBox="0 0 100 50" style="enable-background:new 0 0 100 50;" xml:space="preserve">
<style type="text/css">
	.st0{fill-rule:evenodd;clip-rule:evenodd;fill:#007AC1;}
	.st1{fill-rule:evenodd;clip-rule:evenodd;fill:#646D76;}
	.st2{fill-rule:evenodd;clip-rule:evenodd;fill:#4F9CD5;}
</style>
<g id="XMLID_27_">
	<g id="XMLID_48_">
		<path id="XMLID_25_" class="st0" d="M48.7,19.6c-0.3-0.2-0.5-0.3-0.8-0.5c-0.3-0.2-0.5-0.4-0.7-0.6c-0.7-0.6-1.1-1.5-1.7-2.2
			c0,0,0,0,0,0c0,1.3,0.4,2.3,1,3.2c0.4,0.7,1,1.4,1.7,1.9c0.1,0.1,0.3,0.2,0.3,0.2c0.1,0,0.4,0,0.5,0c1.1-0.1,2-0.5,2.7-1.1
			c0.1,0,0.1-0.1,0.1-0.1c-0.8-0.1-1.5-0.2-2.2-0.5C49.3,19.8,48.9,19.7,48.7,19.6z"/>
		<path id="XMLID_24_" class="st0" d="M56.4,16.7C56.4,16.7,56.4,16.7,56.4,16.7C56.4,16.7,56.4,16.6,56.4,16.7
			c-0.2,2.2-1.1,3.7-2.3,4.9c-0.3,0.3-0.8,0.6-1.2,0.9c0,0-0.1,0.1-0.1,0.1c1.1-0.1,2-0.5,2.8-1c0.6-0.4,1.1-0.8,1.5-1.4
			c0.1-0.2,0.3-0.4,0.4-0.6c0-0.1,0-0.3,0-0.5C57.3,18.2,57.1,17.2,56.4,16.7z"/>
		<path id="XMLID_23_" class="st0" d="M47.9,15.7c0.1,0,0.1,0.1,0.2,0.1c0-1.6,0.6-2.8,1.3-3.8c0.3-0.5,0.7-1,1.2-1.4
			c0.4-0.3,0.9-0.7,1.4-1c0,0,0.1,0,0.1-0.1c-0.8,0-1.4,0.1-2,0.3c-1.1,0.4-2,0.9-2.7,1.7c-0.1,0.1-0.3,0.4-0.4,0.5
			c0,0.2,0,0.4,0,0.6C46.9,13.9,47.2,15.1,47.9,15.7z"/>
		<path id="XMLID_22_" class="st0" d="M55.5,16c0-1.2-0.4-2-1-2.5c-0.6-0.5-1.5-0.9-2.6-0.9c-1.2,0.1-1.9,0.4-2.5,1
			c-0.6,0.6-1,1.4-0.9,2.6c0,1.1,0.5,1.8,1.1,2.4c0.6,0.6,1.4,1,2.5,1c1.1,0,1.9-0.4,2.5-1.1C55.1,18,55.5,17.2,55.5,16z"/>
		<path id="XMLID_21_" class="st0" d="M57.7,12.7c-0.2-0.4-0.5-0.7-0.8-1c-0.1-0.1-0.3-0.3-0.5-0.5c-0.1-0.1-0.4-0.4-0.6-0.4
			c-0.3,0-0.7,0.1-1,0.1c-0.6,0.1-1.2,0.3-1.7,0.6c-0.2,0.1-0.5,0.3-0.6,0.5c1.5,0,2.6,0.5,3.6,1.1c0.5,0.3,1,0.6,1.3,1
			c0.3,0.3,0.6,0.8,0.9,1.1c0,0.1,0.1,0.1,0.1,0.1c0-0.6-0.2-1-0.3-1.5C58.1,13.5,57.9,13.1,57.7,12.7z"/>
		<path id="XMLID_49_" class="st0" d="M63,17.6c0.3-0.1,1.6-0.5,2.1-0.7c0-0.3,0-0.5,0-0.8c0-0.3,0-0.6,0-0.9
			c-0.6-0.2-1.9-0.5-2.1-0.6c-0.3-0.1-0.1-0.4-0.1-0.4l1.8-1.4c-0.1-0.6-0.3-1.1-0.5-1.7c-0.6,0-1.9,0.1-2.2,0.1
			c-0.3,0-0.2-0.3-0.2-0.3l1.3-1.9c-0.3-0.5-0.7-1-1-1.4c-0.6,0.2-1.9,0.6-2.1,0.7c-0.3,0.1-0.3-0.3-0.3-0.3l0.7-2.1
			C60,5.7,59.5,5.3,59,5c-0.5,0.4-1.6,1.2-1.8,1.4c-0.3,0.2-0.3-0.2-0.3-0.2l0-2.2c-0.5-0.2-1.1-0.4-1.6-0.5C55,3.9,54.2,5,54,5.2
			c-0.2,0.3-0.4,0-0.4,0L53,3c-0.3,0-0.7,0-1,0c-0.3,0-0.6,0-0.9,0l-0.6,2.1c0,0-0.2,0.3-0.4,0.1c-0.2-0.3-0.9-1.3-1.2-1.8
			c-0.6,0.1-1.1,0.3-1.7,0.5l0,2.3c0,0-0.1,0.4-0.3,0.1c-0.2-0.2-1.3-1-1.8-1.4c-0.5,0.3-1,0.7-1.4,1l0.7,2.2c0,0,0.1,0.4-0.3,0.2
			c-0.3-0.1-1.5-0.6-2.1-0.8c-0.4,0.5-0.8,1-1.1,1.6l1.3,1.9c0,0,0.2,0.3-0.2,0.3c-0.3,0-1.6-0.1-2.2-0.1c-0.2,0.5-0.4,1-0.5,1.6
			l1.8,1.4c0,0,0.3,0.3,0,0.3c-0.3,0.1-1.5,0.4-2.1,0.6c0,0.3,0,0.6,0,1c0,0.2,0,0.5,0,0.7c0.5,0.2,1.9,0.6,2.2,0.7
			c0.3,0.1,0,0.4,0,0.4l-1.9,1.3c0.1,0.6,0.3,1.2,0.6,1.7c0.6,0,1.9-0.1,2.2-0.1c0.3,0,0.2,0.3,0.2,0.3L40.9,23
			c0.3,0.5,0.7,1.1,1.1,1.6c0.6-0.2,1.8-0.7,2.1-0.8c0.3-0.1,0.3,0.3,0.3,0.3l-0.7,2.2c0.4,0.4,0.9,0.7,1.4,1
			c0.5-0.4,1.6-1.2,1.8-1.4c0.3-0.2,0.3,0.2,0.3,0.2l0,2.2c0.6,0.2,1.2,0.4,1.8,0.6c0.3-0.5,1.1-1.6,1.2-1.9c0.2-0.3,0.4,0,0.4,0
			l0.7,2.2c0.2,0,0.5,0,0.7,0c0.3,0,0.6,0,1,0l0.7-2.2c0,0,0.1-0.3,0.3-0.1c0.2,0.2,1,1.4,1.3,1.8c0.6-0.1,1.1-0.3,1.6-0.5l0-2.2
			c0,0,0-0.4,0.3-0.2c0.2,0.2,1.3,1,1.8,1.4c0.5-0.3,1-0.7,1.5-1.1L59.8,24c0,0-0.1-0.4,0.3-0.3c0.3,0.1,1.5,0.5,2.1,0.7
			c0.4-0.5,0.7-0.9,1-1.5l-1.3-1.9c0,0-0.2-0.3,0.2-0.3c0.3,0,1.6,0.1,2.2,0.1c0.2-0.5,0.4-1.1,0.5-1.7l-1.8-1.3
			C62.9,17.9,62.6,17.7,63,17.6z M58.1,21.6c-0.3,0.4-0.7,0.7-1.1,1c-0.7,0.6-1.6,1.1-2.7,1.4c-0.8,0.2-1.7,0.4-2.7,0.3
			c-0.3,0-0.6,0-1-0.1c-1.8-0.2-3.2-0.9-4.2-1.9c-0.7-0.6-1.3-1.4-1.7-2.3c-0.4-0.9-0.7-2-0.8-3.3c-0.1-2.7,0.8-4.6,2.1-6.1
			c0.6-0.7,1.4-1.3,2.3-1.8c0.6-0.3,1.5-0.6,2.3-0.8C50.8,8,51.1,8,51.4,8c0.6,0,1.3,0,1.9,0.1c2.9,0.6,4.7,2,5.9,4.2
			c0.5,0.9,0.8,2,0.9,3.2C60.3,18.2,59.3,20.2,58.1,21.6z"/>
	</g>
	<path id="XMLID_18_" class="st1" d="M34.6,12.2c0-0.1,0-0.1,0-0.2c0-0.1-0.1-0.1-0.2-0.1C12.1,23.3-3,37.8,0.5,45
		c1.9,4,9,4.8,18.6,3.3c0,0,0-0.1,0-0.1c0-0.1,0-0.1-0.1-0.1c-6.8,0.4-11.6-1-13.2-4.2C2.5,36.9,14.9,23,34.6,12.2L34.6,12.2z"/>
	<path id="XMLID_17_" class="st2" d="M61.4,32.5c0,0.1,0,0.1,0,0.1c0,0,0.1,0.1,0.2,0.1C83,22.7,97.4,9.8,94.1,3.4
		c-1.8-3.5-8.6-4.3-17.9-2.9c0,0,0,0.1,0,0.1c0,0,0,0.1,0.1,0.1c6.5-0.4,11.1,0.9,12.6,3.7C92.1,10.6,80.2,23,61.4,32.5L61.4,32.5z"
		/>
	<path id="XMLID_39_" class="st2" d="M11.2,42.1l0.7-3h1.6c0,0.1-0.1,0.3-0.1,0.4c0,0.3,0.1,0.6,0.3,0.8c0.2,0.2,0.5,0.3,0.8,0.3
		c0.4,0,0.7-0.1,0.9-0.4c0.2-0.2,0.4-0.5,0.4-0.9c0-0.2-0.1-0.5-0.2-0.7c-0.1-0.3-0.5-0.7-1.2-1.2c-0.6-0.6-1-1-1.2-1.4
		c-0.2-0.4-0.3-0.7-0.3-1.1c0-0.7,0.2-1.3,0.7-1.8c0.5-0.5,1.1-0.8,2-0.8c0.8,0,1.5,0.3,1.9,0.8l0.2-0.7h1.6l-0.6,2.6h-1.6
		c0-0.1,0-0.1,0-0.2c0-0.2-0.1-0.5-0.3-0.6c-0.2-0.2-0.5-0.2-0.8-0.2c-0.3,0-0.5,0.1-0.7,0.2c-0.2,0.1-0.3,0.3-0.3,0.5
		c0,0.2,0.1,0.3,0.2,0.5c0.1,0.2,0.5,0.6,1.1,1.1c0.6,0.6,1.1,1.1,1.3,1.5c0.2,0.5,0.3,0.9,0.3,1.4c0,0.9-0.3,1.7-0.9,2.3
		c-0.6,0.6-1.3,0.9-2.3,0.9c-0.8,0-1.4-0.3-1.9-0.9l-0.2,0.7H11.2L11.2,42.1z M23.1,40.3l-0.4,1.6c-0.6,0.3-1.2,0.4-1.8,0.4
		c-0.4,0-0.8-0.1-1.1-0.4c-0.3-0.3-0.4-0.6-0.4-1c0-0.3,0-0.6,0.1-1l0.7-3.2h-0.8l0.3-1.5h0.8l0.2-1l2.5-1.7l-0.6,2.7h0.9l-0.3,1.5
		h-0.9l-0.7,3.2c0,0.2-0.1,0.3-0.1,0.4c0,0.2,0.1,0.4,0.4,0.4C22.3,40.7,22.7,40.6,23.1,40.3L23.1,40.3z M31.2,40.7l-0.4,1.5h-3.1
		l0.1-0.6c-0.7,0.4-1.3,0.6-1.8,0.6c-0.6,0-1.1-0.2-1.5-0.5c-0.4-0.4-0.6-0.8-0.6-1.4c0-0.7,0.3-1.4,0.9-1.8
		c0.6-0.5,1.5-0.7,2.5-0.7c0.2,0,0.7,0.1,1.3,0.2l0.1-0.6c0-0.1,0-0.1,0-0.2c0-0.2-0.1-0.4-0.3-0.6c-0.2-0.2-0.5-0.2-0.8-0.2
		c-0.5,0-1,0.2-1.6,0.5l-1-1c1-0.5,2-0.8,2.9-0.8c0.9,0,1.7,0.2,2.2,0.6c0.5,0.4,0.8,0.9,0.8,1.5c0,0.2,0,0.4-0.1,0.6l-0.7,2.8H31.2
		L31.2,40.7z M28.1,40.3l0.3-1.1c-0.3-0.1-0.7-0.1-1-0.1c-0.4,0-0.8,0.1-1.1,0.3c-0.3,0.2-0.4,0.5-0.4,0.8c0,0.2,0.1,0.4,0.2,0.5
		c0.2,0.1,0.3,0.2,0.6,0.2C27.1,40.9,27.6,40.7,28.1,40.3L28.1,40.3z M31.6,42.1l0.3-1.5h0.8l0.9-3.9h-0.9l0.3-1.5h2.8l-0.5,2l0,0
		c0.7-1.1,1.2-1.7,1.5-1.8c0.3-0.2,0.6-0.2,0.9-0.2c0.2,0,0.4,0,0.6,0.1L38,37.1c-0.2,0-0.4-0.1-0.6-0.1c-1.1,0-1.9,0.7-2.2,2.2
		l-0.3,1.5h1.1l-0.3,1.5H31.6L31.6,42.1z M42.5,40.3l-0.4,1.6c-0.6,0.3-1.2,0.4-1.8,0.4c-0.4,0-0.8-0.1-1.1-0.4
		c-0.3-0.3-0.4-0.6-0.4-1c0-0.3,0-0.6,0.1-1l0.7-3.2h-0.8l0.3-1.5h0.8l0.2-1l2.5-1.7l-0.6,2.7h0.9l-0.3,1.5h-0.9l-0.7,3.2
		c0,0.2-0.1,0.3-0.1,0.4c0,0.2,0.1,0.4,0.4,0.4C41.7,40.7,42.1,40.6,42.5,40.3z"/>
	<path id="XMLID_28_" class="st1" d="M42.7,42.1l0.4-1.5h1l1.6-6.7h-1l0.4-1.5h4.3l0.8,5.9l3.6-5.9h4.5l-0.4,1.5h-0.7l-1.6,6.7h1
		l-0.4,1.5H52l0.3-1.5h0.9l1.6-6.7h-0.2l-5.1,8.3h-1l-1.1-8.3h-0.3l-1.6,6.7h0.9l-0.3,1.5H42.7L42.7,42.1z M61.2,42.3
		c1.2,0,2.2-0.4,3-1.2c0.8-0.8,1.2-1.8,1.2-3c0-0.8-0.3-1.5-0.8-2.1c-0.5-0.6-1.3-0.9-2.2-0.9c-1.2,0-2.2,0.4-3,1.3
		c-0.8,0.8-1.2,1.9-1.2,3.1c0,0.8,0.3,1.5,0.8,2.1C59.6,42.1,60.3,42.3,61.2,42.3L61.2,42.3z M62.2,36.7c0.3,0,0.6,0.1,0.8,0.3
		c0.2,0.2,0.3,0.5,0.3,0.9c0,0.7-0.2,1.4-0.5,2c-0.4,0.6-0.8,0.9-1.4,0.9c-0.3,0-0.5-0.1-0.7-0.3c-0.2-0.2-0.3-0.5-0.3-0.9
		c0-0.7,0.2-1.4,0.5-2C61.2,37,61.6,36.7,62.2,36.7L62.2,36.7z M65.5,42.1l0.3-1.5h0.8l1.6-6.9h-0.9l0.3-1.5h3L69.8,36l0,0
		c0.6-0.6,1.2-0.9,1.9-0.9c0.7,0,1.3,0.2,1.7,0.7c0.4,0.5,0.7,1.1,0.7,1.9c0,1.2-0.4,2.2-1.1,3.1c-0.7,0.9-1.5,1.3-2.5,1.3
		c-0.8,0-1.4-0.4-1.9-1.1l-0.2,1.1H65.5L65.5,42.1z M70.2,40.6c0.5,0,0.9-0.3,1.2-0.8c0.4-0.5,0.5-1.1,0.5-1.8
		c0-0.4-0.1-0.7-0.3-0.9c-0.2-0.2-0.4-0.4-0.7-0.4c-0.5,0-1,0.3-1.3,0.8c-0.3,0.5-0.5,1.1-0.5,1.8c0,0.4,0.1,0.7,0.3,0.9
		C69.6,40.5,69.9,40.6,70.2,40.6L70.2,40.6z M78.3,34.4c-0.3,0-0.6-0.1-0.8-0.3c-0.2-0.2-0.3-0.5-0.3-0.8c0-0.3,0.1-0.6,0.3-0.8
		c0.2-0.2,0.5-0.3,0.8-0.3c0.3,0,0.6,0.1,0.8,0.3c0.2,0.2,0.3,0.5,0.3,0.8c0,0.3-0.1,0.6-0.3,0.8C78.9,34.3,78.6,34.4,78.3,34.4
		L78.3,34.4z M75.6,40.7l0.9-3.9h-0.9l0.3-1.5h3l-1.2,5.4h0.9l-0.3,1.5h-3.8l0.3-1.5H75.6L75.6,40.7z M79.3,42.1h3.8l0.3-1.5h-0.9
		l1.9-8.3h-3.1L81,33.8h1l-1.6,6.9h-0.7L79.3,42.1L79.3,42.1z M89.5,40.1l1.5,0.7c-0.7,1-1.7,1.5-3.1,1.5c-1,0-1.7-0.3-2.3-0.8
		c-0.6-0.5-0.8-1.3-0.8-2.2c0-1.2,0.4-2.1,1.1-3c0.8-0.8,1.7-1.3,2.8-1.3c0.9,0,1.6,0.3,2.2,0.8c0.6,0.5,0.9,1.3,0.9,2.2
		c0,0.3,0,0.6-0.1,1h-4.9c0,0.2,0,0.3,0,0.4c0,0.4,0.1,0.8,0.3,1c0.2,0.2,0.5,0.4,0.9,0.4C88.7,41,89.1,40.7,89.5,40.1L89.5,40.1z
		 M87.1,38h2.7c0-0.1,0-0.2,0-0.3c0-0.4-0.1-0.7-0.3-0.9c-0.2-0.2-0.5-0.3-0.8-0.3C88,36.5,87.4,37,87.1,38z"/>
</g>
</svg>
