<?xml version="1.0" encoding="utf-8"?>
<!-- Generator: Adobe Illustrator 19.0.0, SVG Export Plug-In . SVG Version: 6.00 Build 0)  -->
<svg version="1.0" id="Layer_1" xmlns="http://www.w3.org/2000/svg" xmlns:xlink="http://www.w3.org/1999/xlink" x="0px" y="0px"
	 viewBox="0 0 30 30" style="enable-background:new 0 0 30 30;" xml:space="preserve">
<style type="text/css">
	.st0{fill:#FFFFFF;}
</style>
<path id="XMLID_790_" class="st0" d="M13,15.2c0.6-0.4,1-0.8,1.2-1.1c0.2-0.3,0.3-0.7,0.3-1.1c0-0.4-0.1-0.7-0.3-1
	c-0.2-0.3-0.5-0.5-0.8-0.6c-0.3-0.1-0.8-0.2-1.4-0.2c-0.6,0-1,0.1-1.4,0.2c-0.3,0.1-0.6,0.4-0.8,0.6c-0.2,0.3-0.3,0.6-0.4,1.1
	l1.7,0.1c0-0.3,0.1-0.6,0.3-0.7c0.1-0.1,0.3-0.2,0.5-0.2c0.2,0,0.4,0.1,0.5,0.2c0.1,0.1,0.2,0.3,0.2,0.5c0,0.2-0.1,0.4-0.2,0.6
	c-0.1,0.2-0.5,0.5-1,0.9C10.8,15,10.3,15.5,10,16c-0.3,0.5-0.5,0.9-0.5,1.4h5.1V16h-2.7c0.2-0.2,0.3-0.3,0.4-0.4
	C12.4,15.6,12.6,15.4,13,15.2L13,15.2z M21.2,11.3v6.2h1.7v-2.1c0-0.4,0.1-0.7,0.2-0.8c0.1-0.2,0.3-0.2,0.5-0.2
	c0.2,0,0.3,0.1,0.4,0.2c0.1,0.1,0.2,0.3,0.2,0.6v2.5h1.7v-2.8c0-0.6-0.1-1-0.4-1.3c-0.3-0.3-0.6-0.4-1.1-0.4c-0.3,0-0.6,0.1-0.8,0.2
	c-0.2,0.1-0.5,0.3-0.7,0.5v-2.3H21.2L21.2,11.3z M18.2,14.9h-1.7l1.7-1.9V14.9L18.2,14.9z M19.7,11.1h-1.5l-3.1,3.7v1.4h3.1v1.2h1.5
	v-1.2h0.8v-1.3h-0.8V11.1L19.7,11.1z M14.6,24c-0.4-0.7-1.3-1-2.1-0.7l-0.1,0.1c-0.7,0.3-1.7,0-2.1-0.7l-4.5-8
	c-0.4-0.7-0.2-1.7,0.5-2.1l0.1-0.1C7,11.9,7.2,11,6.8,10.3L4.4,5.9C4,5.2,3.3,5.2,2.8,5.8L0.6,8.9C0.1,9.6-0.1,10.8,0,11.6
	c0,0,0.6,3,4.2,9.3c3.6,6.4,5.7,8.2,5.7,8.2c0.6,0.5,1.8,0.9,2.6,0.8l3.8-0.3c0.8-0.1,1.1-0.7,0.7-1.4L14.6,24L14.6,24z M17.1,22.3
	c-0.2-0.3-0.6-0.5-1-0.3l-0.6,0.3c-0.4,0.2-0.5,0.6-0.3,0.9l2.9,5.2c0.2,0.3,0.6,0.5,1,0.3l0.5-0.3c0.3-0.2,0.5-0.6,0.3-1L17.1,22.3
	L17.1,22.3z M7.9,10.1c0.2,0.3,0.6,0.4,0.9,0.2L9.3,10c0.3-0.2,0.4-0.7,0.2-1l-2.8-5c-0.2-0.3-0.6-0.5-1-0.3L5.2,4
	C4.9,4.2,4.8,4.6,5,4.9L7.9,10.1L7.9,10.1z M15.8,0c-3,0-5.8,1-8.2,2.6l1,1.8c2-1.4,4.5-2.3,7.1-2.3C22.6,2,28,7.5,28.1,14.3
	c0,5-3,9.3-7.2,11.2l1,1.8c4.9-2.3,8.3-7.2,8.3-12.9C30.1,6.4,23.7,0,15.8,0L15.8,0z"/>
</svg>
