<?xml version="1.0" encoding="utf-8"?>
<!-- Generator: Adobe Illustrator 19.0.0, SVG Export Plug-In . SVG Version: 6.00 Build 0)  -->
<svg version="1.0" id="Layer_1" xmlns="http://www.w3.org/2000/svg" xmlns:xlink="http://www.w3.org/1999/xlink" x="0px" y="0px"
	 viewBox="0 0 44 36" style="enable-background:new 0 0 44 36;" xml:space="preserve">
<style type="text/css">
	.st0{fill-rule:evenodd;clip-rule:evenodd;fill:#FCFCFC;}
	.st1{fill:#FFFFFF;}
</style>
<path id="XMLID_2_" class="st0" d="M81.4,35.2v1.8c0,1.4,0.7,1.3,1.9,1.3H94c0.7,0,1.9,0.1,2.5-0.4c0.3-0.2,0.5-0.8,0.5-1.8V24.4
	h1.8v11.8c0,1.6-0.4,2.6-1.2,3.3c-1,0.7-2.5,0.7-3.6,0.7H83.3c-2.2,0.1-3.7-0.5-3.7-3.1v-1.8H81.4L81.4,35.2L81.4,35.2z M99.1,38.3
	c0.5,0,1-0.1,1.4-0.4c0.5-0.4,0.5-1.2,0.5-1.8V24.4h1.8v11.8c0,1.2-0.2,2.4-1.2,3.2c-1,0.8-2.2,0.8-3.4,0.8h-0.7
	c0.1-0.1,0.2-0.1,0.4-0.2C98.5,39.5,98.8,39,99.1,38.3L99.1,38.3L99.1,38.3z M86.3,35.2v1.8c0,0.3,0,0.5,0.1,0.7h-1.9
	c0-0.2,0-0.5,0-0.7v-1.8H86.3L86.3,35.2L86.3,35.2z M100.8,16.9h2l-0.7-5.9h-0.6L100.8,16.9L100.8,16.9L100.8,16.9z M100.4,17.6h2.9
	v6h-2.9V17.6L100.4,17.6L100.4,17.6z M96.9,16.9h2l-0.7-5.9h-0.6L96.9,16.9L96.9,16.9L96.9,16.9z M96.5,17.6h2.9v6h-2.9V17.6
	L96.5,17.6L96.5,17.6z M82.9,15.5c3.8,0,6.9,3.1,6.9,6.9c0,3.8-3.1,6.9-6.9,6.9c-3.8,0-6.9-3.1-6.9-6.9C76,18.7,79.1,15.5,82.9,15.5
	L82.9,15.5L82.9,15.5z M82.9,16.7c3.2,0,5.8,2.6,5.8,5.8c0,0.8-0.2,1.6-0.5,2.3l-7.6-7.6C81.3,16.9,82.1,16.7,82.9,16.7L82.9,16.7
	L82.9,16.7z M85.2,27.8c-0.7,0.3-1.5,0.5-2.3,0.5c-3.2,0-5.8-2.6-5.8-5.8c0-0.8,0.2-1.6,0.5-2.3L85.2,27.8L85.2,27.8L85.2,27.8z
	 M79.9,17.6l7.9,7.9c-0.5,0.7-1.1,1.4-1.8,1.8L78,19.4C78.5,18.7,79.1,18.1,79.9,17.6L79.9,17.6L79.9,17.6z M76.3,30.9h3.4
	c0,0,0.1,0,0.1,0.1v1.4c0,0,0,0.1-0.1,0.1h-3.4c0,0-0.1,0-0.1-0.1L76.3,30.9C76.2,30.9,76.2,30.9,76.3,30.9L76.3,30.9L76.3,30.9z
	 M81.2,30.9h3.4c0,0,0.1,0,0.1,0.1v1.4c0,0,0,0.1-0.1,0.1h-3.4c0,0-0.1,0-0.1-0.1L81.2,30.9C81.1,30.9,81.2,30.9,81.2,30.9
	L81.2,30.9L81.2,30.9z M86.1,30.9h3.4c0,0,0.1,0,0.1,0.1v1.4c0,0,0,0.1-0.1,0.1h-3.4c0,0-0.1,0-0.1-0.1L86.1,30.9
	C86.1,30.9,86.1,30.9,86.1,30.9L86.1,30.9L86.1,30.9z M83.3,12h0.8v0.8h-0.8V12L83.3,12L83.3,12z M81,8.9h1.3c0.4,0,0.8,0.4,0.8,0.8
	v2.2c0,0.4-0.4,0.8-0.8,0.8H81c-0.4,0-0.8-0.4-0.8-0.8V9.7C80.2,9.2,80.6,8.9,81,8.9L81,8.9L81,8.9z M82.2,9.8h-1.1v2.1h1.1V9.8
	L82.2,9.8L82.2,9.8z M85.2,8.9h1.3c0.4,0,0.8,0.4,0.8,0.8v2.2c0,0.4-0.4,0.8-0.8,0.8h-1.3c-0.4,0-0.8-0.4-0.8-0.8V9.7
	C84.4,9.2,84.7,8.9,85.2,8.9L85.2,8.9L85.2,8.9z M86.3,9.8h-1.1v2.1h1.1V9.8L86.3,9.8L86.3,9.8z M88.6,8.9h1.3
	c0.4,0,0.8,0.4,0.8,0.8v2.2c0,0.4-0.4,0.8-0.8,0.8h-1.3c-0.4,0-0.8-0.4-0.8-0.8V9.7C87.8,9.2,88.2,8.9,88.6,8.9L88.6,8.9L88.6,8.9z
	 M89.8,9.8h-1.1v2.1h1.1V9.8L89.8,9.8L89.8,9.8z M74.7,8h16.5c0.2,0,0.4,0.2,0.4,0.4v4.8c0,0.2-0.2,0.4-0.4,0.4H74.7
	c-0.2,0-0.4-0.2-0.4-0.4V8.4C74.2,8.1,74.4,8,74.7,8L74.7,8L74.7,8z M72.8,5.2H93c0.7,0,1.3,0.6,1.3,1.3V33c0,0.7-0.6,1.3-1.3,1.3
	H72.8c-0.7,0-1.3-0.6-1.3-1.3V6.5C71.5,5.8,72,5.2,72.8,5.2L72.8,5.2L72.8,5.2z"/>
<g id="XMLID_3_">
	<path id="XMLID_178_" class="st1" d="M85.9,54.2c0-3.6-3-6.4-6.8-6.4c-0.2,0-0.4,0-0.6,0c-0.3,0-0.3,0.2-0.1,0.4l3.5,3.3
		c0.2,0.2,0.3,0.5,0.2,0.8l-0.9,3.3c-0.1,0.3-0.3,0.5-0.6,0.6L77.2,57c-0.3,0.1-0.6,0-0.8-0.2l-3.5-3.3c-0.2-0.2-0.4-0.1-0.4,0.1
		c0,0.2,0,0.4,0,0.6c0,3.6,3,6.4,6.8,6.4C82.9,60.7,85.9,57.8,85.9,54.2L85.9,54.2z"/>
	<path id="XMLID_261_" class="st1" d="M89.3,73.1c-2.5,0-4.5-1.9-4.5-4.3c0-2.4,2-4.3,4.5-4.3c2.5,0,4.5,1.9,4.5,4.3
		C93.8,71.2,91.8,73.1,89.3,73.1L89.3,73.1z M99.5,72.6l-1.8-1.5c-0.2-0.2-0.3-0.5-0.3-0.8c0.1-0.5,0.2-1,0.2-1.6
		c0-0.5-0.1-1-0.2-1.5c-0.1-0.3,0.1-0.6,0.3-0.8l1.8-1.5c0.2-0.2,0.3-0.5,0.1-0.7l-1.1-1.8c-0.1-0.2-0.5-0.3-0.7-0.3L95.6,63
		c-0.3,0.1-0.6,0-0.8-0.2C94,62.1,93,61.6,92,61.3c-0.3-0.1-0.5-0.3-0.6-0.6L91,58.5c-0.1-0.3-0.3-0.5-0.6-0.5h-2.2
		c-0.3,0-0.5,0.2-0.6,0.5l-0.4,2.2c-0.1,0.3-0.3,0.5-0.6,0.6c-1,0.3-2,0.9-2.8,1.6c-0.2,0.2-0.6,0.3-0.8,0.2l-0.1,0
		c-0.3-0.1-0.5,0.1-0.5,0.3l0.3,11c0,0.3,0.2,0.4,0.4,0.3c0.2-0.1,0.5,0,0.7,0.2c0.8,0.7,1.8,1.2,2.8,1.6c0.3,0.1,0.5,0.3,0.6,0.6
		l0.4,2.2c0,0.3,0.3,0.5,0.6,0.5h2.2c0.3,0,0.5-0.2,0.6-0.5l0.4-2.2c0.1-0.3,0.3-0.5,0.6-0.6c1-0.3,2-0.9,2.8-1.6
		c0.2-0.2,0.6-0.3,0.8-0.2l2.2,0.7c0.3,0.1,0.6,0,0.7-0.3l1.1-1.8C99.8,73.1,99.7,72.8,99.5,72.6L99.5,72.6z"/>
	<path id="XMLID_257_" class="st1" d="M82,81.2c0,0.1,0,0.2,0,0.3c0,0.2-0.1,0.4-0.2,0.5c-0.2,0.3-0.5,0.6-0.8,0.8
		c-0.3,0.2-0.8,0.3-1.2,0.3c-0.4,0-0.8-0.1-1.2-0.3c-0.3-0.2-0.6-0.5-0.8-0.8c-0.1-0.2-0.2-0.4-0.2-0.5c0-0.1,0-0.2,0-0.3l0-0.1l0,0
		v0v0l0,0l0-0.1l0-1c0-1.4,0.1-2.7,0.1-4.1c0.1-1.4,0.1-2.7,0.2-4.1l0.1-2l0-1l0.1-1c0-0.1,0.1-0.1,0.1-0.1c0.1,0,0.1,0,0.1,0.1l0,1
		l0,1l0,2c0,1.4,0,2.7-0.1,4.1c0,1.4-0.1,2.7-0.1,4.1l0,1l0,0.1v0v0v0l0,0l0,0.1c0,0.1,0,0.1,0,0.2c0,0.1,0.1,0.3,0.2,0.4
		c0.1,0.3,0.4,0.5,0.6,0.6c0.3,0.2,0.6,0.2,0.9,0.2c0.3,0,0.6-0.1,0.9-0.2c0.3-0.1,0.5-0.4,0.6-0.6c0.1-0.1,0.1-0.3,0.2-0.4
		c0-0.1,0-0.1,0-0.2c0-0.1,0-0.1,0-0.2l0-1c0-1.4-0.1-2.7-0.1-4.1c0-1.4,0-2.7-0.1-4.1l0-2l0-1l0-1c0-0.1,0-0.1,0.1-0.1
		c0.1,0,0.1,0,0.1,0.1l0.1,1l0,1l0.1,2c0.1,1.4,0.1,2.7,0.2,4.1c0.1,1.4,0.1,2.7,0.1,4.1l0,1C82.1,81,82.1,81.1,82,81.2L82,81.2z
		 M79.8,79.8c0.6,0,1.1,0.5,1.1,1.1c0,0.6-0.5,1.1-1.1,1.1c-0.6,0-1.1-0.5-1.1-1.1C78.7,80.3,79.2,79.8,79.8,79.8L79.8,79.8z
		 M81.9,61c0-0.3-0.2-0.4-0.5-0.3C80.7,60.9,80,61,79.2,61c-0.3,0-0.7,0-1-0.1c-0.3,0-0.5,0.1-0.5,0.4l-0.6,19.4c0,0,0,0.1,0,0.1
		c0,1.4,1.2,2.6,2.7,2.6c1.5,0,2.7-1.1,2.7-2.6c0,0,0-0.1,0-0.1L81.9,61L81.9,61z"/>
</g>
<path id="XMLID_789_" class="st1" d="M18.3,33.8c-1.3,0-2.3-1.1-2.3-2.3c0,0,0,0,0-0.1c0-0.6,0.3-1.2,0.7-1.6c0,0,0,0,0,0
	c0.1-0.1,0.2-0.2,0.3-0.3c0,0,0.1,0,0.1-0.1c0.1-0.1,0.2-0.1,0.3-0.2c0.1,0,0.2,0,0.2-0.1c0.1,0,0.1,0,0.2-0.1c0.2,0,0.3,0,0.5,0
	c0.2,0,0.4,0,0.5,0.1c0,0,0.1,0,0.1,0c0.1,0,0.2,0.1,0.4,0.1c0,0,0.1,0,0.1,0.1c0.1,0.1,0.2,0.1,0.3,0.2c0,0,0,0,0.1,0.1
	c0.1,0.1,0.2,0.2,0.3,0.4c0.3,0.4,0.4,0.9,0.4,1.4C20.6,32.8,19.6,33.8,18.3,33.8L18.3,33.8z M39.1,9.4c-0.2-0.8-1.1-1.3-1.9-1
	l-7.5,2.1c-0.4,0.1-0.7,0.3-0.9,0.6l-10.3,16c-0.1,0-0.2,0-0.3,0c-0.9,0-1.7,0.3-2.4,0.7L5,20.7c-0.7-0.5-1.6-0.3-2.1,0.4
	c-0.5,0.7-0.3,1.6,0.4,2.1l10.7,7c-0.1,0.4-0.2,0.8-0.2,1.3c0,2.4,2,4.4,4.4,4.4c2.4,0,4.4-2,4.4-4.4c0-1.2-0.5-2.4-1.4-3.2
	l9.8-15.1l6.9-2C38.9,11,39.3,10.2,39.1,9.4L39.1,9.4z M12.2,13.2L5.5,8.8L1,15.5L7.7,20L12.2,13.2L12.2,13.2z M18.2,4.3l-6.7-4.5
	L6.9,6.6l6.7,4.5L18.2,4.3L18.2,4.3z M9.9,21.4l6.7,4.5l4.5-6.7l-6.7-4.5L9.9,21.4L9.9,21.4z M22.6,17l4.5-6.7l-6.7-4.5l-4.5,6.7
	L22.6,17L22.6,17z"/>
</svg>
